<svg xmlns="http://www.w3.org/2000/svg" viewBox="0 0 471.38 301.16"><defs><style>.cls-1,.cls-11,.cls-13,.cls-15,.cls-16,.cls-3,.cls-5,.cls-7,.cls-9{fill:none;stroke:#fbfbfb;}.cls-1{stroke-miterlimit:10;}.cls-1,.cls-16{stroke-width:20px;}.cls-10,.cls-11,.cls-12,.cls-13,.cls-14,.cls-15,.cls-2,.cls-3,.cls-4,.cls-5,.cls-6,.cls-7,.cls-8,.cls-9{isolation:isolate;font-family:LilitaOneRus, Lilita One Rus;}.cls-2,.cls-3{font-size:71.89px;letter-spacing:-0.02em;}.cls-10,.cls-12,.cls-14,.cls-2,.cls-4,.cls-6,.cls-8{fill:#fbfbfb;}.cls-4,.cls-5{font-size:80px;}.cls-6,.cls-7{font-size:80.01px;}.cls-8,.cls-9{font-size:80.23px;}.cls-10,.cls-11{font-size:72.16px;}.cls-12,.cls-13{font-size:71.89px;}.cls-14,.cls-15{font-size:72px;}.cls-16{stroke-linecap:round;stroke-linejoin:round;}</style></defs><title>Ресурс 1</title><g id="Слой_2" data-name="Слой 2"><g id="Слой_1-2" data-name="Слой 1"><path class="cls-1" d="M81.17,177.33a67,67,0,1,1,124.7-49.1c.1.2.2.5.3.7"/><text class="cls-2" transform="matrix(1.27, -0.5, 0.36, 0.93, 216.37, 186.03)">Н</text><text class="cls-3" transform="matrix(1.27, -0.5, 0.36, 0.93, 216.37, 186.03)">Н</text><path class="cls-1" d="M261,176.43a67,67,0,0,0,125-48.3"/><text class="cls-4" transform="matrix(0.4, -0.88, 0.91, 0.41, 62.78, 134.05)">Б</text><text class="cls-5" transform="matrix(0.4, -0.88, 0.91, 0.41, 62.78, 134.05)">Б</text><text class="cls-6" transform="matrix(0.82, -0.53, 0.54, 0.84, 78.46, 94.97)">О</text><text class="cls-7" transform="matrix(0.82, -0.53, 0.54, 0.84, 78.46, 94.97)">О</text><text class="cls-8" transform="matrix(0.97, -0.02, 0.02, 1, 119.68, 69.46)">Т</text><text class="cls-9" transform="matrix(0.97, -0.02, 0.02, 1, 119.68, 69.46)">Т</text><text class="cls-4" transform="matrix(0.84, 0.48, -0.49, 0.87, 157.22, 66.92)">А</text><text class="cls-5" transform="matrix(0.84, 0.48, -0.49, 0.87, 157.22, 66.92)">А</text><text class="cls-10" transform="translate(230.93 251.49) rotate(32.77)">Ч</text><text class="cls-11" transform="translate(230.93 251.49) rotate(32.77)">Ч</text><text class="cls-12" transform="translate(299.97 284.44) rotate(0.51)">И</text><text class="cls-13" transform="translate(299.97 284.44) rotate(0.51)">И</text><text class="cls-14" transform="translate(379.89 273.81) rotate(-33.42)">К</text><text class="cls-15" transform="translate(379.89 273.81) rotate(-33.42)">К</text><text class="cls-14" transform="translate(438.52 222.7) rotate(-66.47)">И</text><text class="cls-15" transform="translate(438.52 222.7) rotate(-66.47)">И</text><path class="cls-1" d="M386.17,128.73a67,67,0,0,0-85.5-39.5"/><path class="cls-1" d="M81.17,177.23a67.09,67.09,0,0,0,86.5,37.4"/><polyline class="cls-16" points="384.17 110.43 429.97 58.23 445.77 94.93"/></g></g></svg>