<?xml version="1.0" encoding="utf-8"?>
<!-- Generator: Adobe Illustrator 23.0.3, SVG Export Plug-In . SVG Version: 6.00 Build 0)  -->
<svg version="1.1" id="Слой_1" xmlns="http://www.w3.org/2000/svg" xmlns:xlink="http://www.w3.org/1999/xlink" x="0px" y="0px"
	 viewBox="0 0 318 293" style="enable-background:new 0 0 318 293;" xml:space="preserve">
<style type="text/css">
	.st0{fill:#B50707;}
</style>
<title>Ресурс 1</title>
<g>
	<g id="Слой_1-2">
		<path class="st0" d="M310.3,147h-44.9c-5.7,0-10.4,4.6-10.4,10.4v15.2c-1.4-0.3-2.9-0.5-4.3-0.5H249V45.8
			C249,20.5,228.5,0,203.2,0h-87.3C90.5,0,70,20.5,70,45.8V172h-3.7c-1.1,0-2.2,0.1-3.3,0.3v-15c0-5.7-4.7-10.3-10.4-10.3H40.1
			l3.9-27H16l3.9,27H7.7c-4.3,0-7.7,3.5-7.7,7.7c0,0,0,0,0,0v15.6c0,4.3,3.5,7.7,7.7,7.7c0,0,0,0,0,0H40v57.6c0,4.8,3.3,9,8,10.1
			v0.8c0,11.9,9.6,21.5,21.5,21.5l0,0H107v15.4c0,5.3,4.3,9.6,9.6,9.6c0,0,0,0,0,0h83.8c5.3,0,9.6-4.3,9.6-9.6l0,0V268h39v-0.1
			c11.3-0.8,20-10.1,20-21.4v-0.6c5.1-0.7,9-5.1,9-10.3V178h32.3c4.3,0,7.7-3.5,7.7-7.7l0,0v-15.6C318,150.5,314.5,147,310.3,147
			L310.3,147z"/>
		<path class="st0" d="M37,104h-6V88.3c0-0.1,0.1-0.1,0.1-0.2l2.2-5.3c0.2-0.6,0-1.2-0.6-1.4c0,0,0,0,0,0c-0.6-0.2-1.2,0-1.5,0.6
			c0,0,0,0,0,0l-2.2,5.3C29,87.5,28.9,87.8,29,88l0,0v16h-6c-3.9,0-7,3.1-7,7h28C44,107.1,40.9,104,37,104z"/>
	</g>
</g>
</svg>
