<svg xmlns="http://www.w3.org/2000/svg" viewBox="0 0 318 293"><defs><style>.cls-1{fill:#f0e116;}</style></defs><title>Ресурс 3</title><g id="Слой_2" data-name="Слой 2"><g id="Слой_1-2" data-name="Слой 1"><path class="cls-1" d="M310.28,147H265.36A10.36,10.36,0,0,0,255,157.36v15.17a18.65,18.65,0,0,0-4.32-.53H249V45.83A45.83,45.83,0,0,0,203.17,0H115.83A45.83,45.83,0,0,0,70,45.83V172H66.32a18.14,18.14,0,0,0-3.32.32v-15A10.36,10.36,0,0,0,52.64,147H40.06L44,120H16l3.94,27H7.72A7.72,7.72,0,0,0,0,154.72v15.56A7.72,7.72,0,0,0,7.72,178H40v57.64a10.36,10.36,0,0,0,8,10.08v.79A21.49,21.49,0,0,0,69.49,268H107v15.4a9.6,9.6,0,0,0,9.6,9.6h83.8a9.6,9.6,0,0,0,9.6-9.6V268h39v-.08a21.46,21.46,0,0,0,20-21.41v-.61a10.35,10.35,0,0,0,9-10.26V178h32.28a7.72,7.72,0,0,0,7.72-7.72V154.72A7.72,7.72,0,0,0,310.28,147Z"/><path class="cls-1" d="M37,104H31V88.35a.88.88,0,0,0,.12-.19l2.17-5.35a1.11,1.11,0,0,0-.61-1.45,1.12,1.12,0,0,0-1.46.62l-2.16,5.35A1,1,0,0,0,29,88h0v16H23a7,7,0,0,0-7,7H44A7,7,0,0,0,37,104Z"/></g></g></svg>