<?xml version="1.0" encoding="utf-8"?>
<!-- Generator: Adobe Illustrator 23.0.3, SVG Export Plug-In . SVG Version: 6.00 Build 0)  -->
<svg version="1.1" id="Layer_1" xmlns="http://www.w3.org/2000/svg" xmlns:xlink="http://www.w3.org/1999/xlink" x="0px" y="0px"
	 viewBox="0 0 64 64" style="enable-background:new 0 0 64 64;" xml:space="preserve">
<style type="text/css">
	.st0{fill:#101010;}
</style>
<path class="st0" d="M61.5,10.9C60.5,3.6,58,0.7,49.7,0.4S23-0.3,11.8,0.3C0.6,1,1.8,7.9,1.8,10C1.8,10,1,35.5,1,40.1
	s-0.3,7.4,1.2,12.6s4.3,10.6,10.9,11c6.6,0.3,34.3,0.5,40.9-0.2s7.4-6,8.5-11.4C63.7,46.7,62.4,18.1,61.5,10.9L61.5,10.9z
	 M59.9,29.1C60,29.4,60,31,60,31s-3-3-3.4-2.6s-0.2,1.2-0.2,1.2S60,32,60,32.3s-0.1,1.6-0.1,1.6s-2.9-2.4-3-2.3
	c-0.2,0.1-0.4,0.8-0.3,1c0.1,0.2,3.6,2.3,3.6,2.6v3.2c0,0-3-3-3.2-3c-0.2-0.1-0.3,1.2-0.3,1.2s3.3,2.8,3.4,3.2s0.1,2.3,0.1,2.3
	s-3-2.9-3.2-2.9s-0.3,1.4-0.3,1.4s3.2,2.7,3.3,3.1c0.2,0.4,0.1,2.6,0.1,2.6s-3.1-2.5-3.3-2.4s-0.1,1.5,0.1,1.7
	c0.2,0.2,3.3,2.3,3.3,2.6c0.1,0.3-0.1,2.6-0.1,2.6S57,48,56.8,48s-0.3,1-0.3,1s3.4,2.9,3.4,3.1s-0.6,1.6-0.6,1.6s-3.1-3.1-3.3-3.1
	c-0.2-0.1-0.8,0.5-0.8,0.7s3.2,3.1,3,3.4c-0.2,0.3-0.3,0.9-0.6,0.9s-3-2.7-3.2-2.7s-0.8,1-0.8,1s2.9,2.6,2.7,2.7
	c-0.2,0.1-1.5,0.7-1.5,0.7S52.2,55,52,55s-0.8,0.8-0.8,0.8l2.2,2.1c0,0-1.5,0.5-1.7,0.4s-2.3-1.7-2.7-1.9s-1.5,0.3-1.5,0.3
	s2.1,1.7,1.8,1.9C49,58.9,36.5,59.3,29,59.2s-17.8-0.3-20.4-1.6s-5.4-4.5-5.7-11.1s0.4-32.9,0.4-32.9c-0.1-2-0.1-7.4,1.8-9.2
	s5.8-2.6,13.1-2.7C25.4,1.6,44,2,49.5,2.1s8.5,2,9.2,5.1s1.3,15.7,1.2,15.6c-0.2-0.1-2.9-2.2-3.2-2.2c-0.2,0-0.6,1.2-0.3,1.3
	c0.2,0.1,3.4,2.4,3.6,2.8c0.2,0.4,0.2,2.6,0.2,2.6s-3-3.1-3.3-3c-0.2,0.1-0.2,1.6-0.2,1.6S59.8,28.7,59.9,29.1L59.9,29.1z
	 M54.7,18.7c0.1-4.3-0.4-8.1-3-10.2c-2.6-2-21.5-1.4-27.3-1.3S12.9,7.5,11.1,9c-0.5,0.4-1.5,1.2-1.6,3.4c-0.2,2.3-1.2,31.3-0.8,35.8
	s2.3,5.3,6.3,5.4c4,0.1,28.8,0.6,32.9,0.4c4.1-0.2,5.1-1.7,6.2-4.6S54.7,23,54.7,18.7L54.7,18.7z M52.4,48.8c-0.7,1.7-1.6,3.1-5,3.4
	c-3.4,0.3-23.9,0-28.9-0.2s-6.2-1.2-6.2-1.2s0.2-22.4,0.4-28.2s-0.2-10.5,0.6-10.9c0.9-0.5,6.8-1,18.3-1.1
	c11.4-0.1,18.2,0.2,19.2,0.6c1,0.4,2.3,2,2.3,9.4C53,28.1,53.1,47,52.4,48.8L52.4,48.8z M46.3,12.1c-5.4,0.8-4,6-2.2,7.2
	c1.9,1.2,6.4,1.4,6.9-2.3S49.2,11.6,46.3,12.1L46.3,12.1z M49.3,15.6c-0.3,2-2.1,2.2-3.3,2s-3.7-3.4,0.6-4.5
	C47.6,12.9,49.6,13.6,49.3,15.6L49.3,15.6z M28.7,15.8C9.7,19.2,14,38,17.7,43c3.7,5.1,14.7,4.8,20.7,2.3c6-2.6,10.1-8.3,7.4-18.9
	C43.1,15.7,33.2,15.1,28.7,15.8z M40.8,41.6C35.2,45.6,27,46,23,44s-7.8-6.2-6.9-13.3c0.9-7.1,5.5-12.5,12.6-13.2
	c4-0.4,11.6,0,14.1,6.3S46.5,37.6,40.8,41.6z M28.7,21.4c-9,2.3-9.3,7.7-8.5,13.5s10.9,7.1,16.3,4.8s7.2-6,5.7-11.6S34,20,28.7,21.4
	L28.7,21.4z M33,38.9c-5.3,0.6-9-0.5-10.3-3.5s0.5-8.3,7-9.9c4-1,9.5,0.5,10.9,4.6C41.9,34.3,38.2,38.3,33,38.9L33,38.9z"/>
</svg>
