<svg xmlns="http://www.w3.org/2000/svg" viewBox="0 0 471.38 301.16"><defs><style>.cls-1,.cls-11,.cls-13,.cls-15,.cls-16,.cls-3,.cls-5,.cls-7,.cls-9{fill:none;stroke:#fbfbfb;}.cls-1{stroke-miterlimit:10;}.cls-1,.cls-16{stroke-width:20px;}.cls-10,.cls-11,.cls-12,.cls-13,.cls-14,.cls-15,.cls-2,.cls-3,.cls-4,.cls-5,.cls-6,.cls-7,.cls-8,.cls-9{isolation:isolate;font-family:LilitaOneRus, Lilita One Rus;}.cls-12,.cls-13,.cls-2,.cls-3{font-size:71.89px;}.cls-10,.cls-12,.cls-14,.cls-2,.cls-4,.cls-6,.cls-8{fill:#fbfbfb;}.cls-2,.cls-3{letter-spacing:-0.03em;}.cls-4,.cls-5{font-size:80px;}.cls-6,.cls-7{font-size:80px;}.cls-8,.cls-9{font-size:80.23px;}.cls-10,.cls-11{font-size:72.16px;}.cls-14,.cls-15{font-size:72px;}.cls-16{stroke-linecap:round;stroke-linejoin:round;}</style></defs><title>Ресурс 1</title><g id="Слой_2" data-name="Слой 2"><g id="Слой_1-2" data-name="Слой 1"><path class="cls-1" d="M81.18,177.29a67,67,0,1,1,124.71-49c.1.24.19.49.28.73"/><text class="cls-2" transform="matrix(1.27, -0.5, 0.36, 0.93, 216.37, 186.03)">Н</text><text class="cls-3" transform="matrix(1.27, -0.5, 0.36, 0.93, 216.37, 186.03)">Н</text><path class="cls-1" d="M261,176.43a67,67,0,0,0,125-48.3"/><text class="cls-4" transform="translate(62.78 134.05) rotate(-65.69) scale(0.97 1)">Б</text><text class="cls-5" transform="translate(62.78 134.05) rotate(-65.69) scale(0.97 1)">Б</text><text class="cls-6" transform="matrix(0.82, -0.53, 0.54, 0.84, 78.46, 94.97)">О</text><text class="cls-7" transform="matrix(0.82, -0.53, 0.54, 0.84, 78.46, 94.97)">О</text><text class="cls-8" transform="matrix(0.97, -0.02, 0.02, 1, 119.68, 69.46)">Т</text><text class="cls-9" transform="matrix(0.97, -0.02, 0.02, 1, 119.68, 69.46)">Т</text><text class="cls-4" transform="matrix(0.84, 0.48, -0.49, 0.87, 157.22, 66.92)">А</text><text class="cls-5" transform="matrix(0.84, 0.48, -0.49, 0.87, 157.22, 66.92)">А</text><text class="cls-10" transform="matrix(0.84, 0.54, -0.54, 0.84, 230.93, 251.49)">Ч</text><text class="cls-11" transform="matrix(0.84, 0.54, -0.54, 0.84, 230.93, 251.49)">Ч</text><text class="cls-12" transform="translate(299.98 284.44) rotate(0.51)">И</text><text class="cls-13" transform="translate(299.98 284.44) rotate(0.51)">И</text><text class="cls-14" transform="translate(379.89 273.81) rotate(-33.42)">К</text><text class="cls-15" transform="translate(379.89 273.81) rotate(-33.42)">К</text><text class="cls-14" transform="matrix(0.4, -0.92, 0.92, 0.4, 438.52, 222.7)">И</text><text class="cls-15" transform="matrix(0.4, -0.92, 0.92, 0.4, 438.52, 222.7)">И</text><path class="cls-1" d="M386.12,128.74A67,67,0,0,0,300.6,89.27"/><path class="cls-1" d="M81.17,177.23a67,67,0,0,0,86.47,37.38"/><polyline class="cls-16" points="384.19 110.44 429.94 58.18 445.77 94.97"/></g></g></svg>