<?xml version="1.0" encoding="utf-8"?>
<!-- Generator: Adobe Illustrator 23.0.3, SVG Export Plug-In . SVG Version: 6.00 Build 0)  -->
<svg version="1.1" id="Слой_1" xmlns="http://www.w3.org/2000/svg" xmlns:xlink="http://www.w3.org/1999/xlink" x="0px" y="0px"
	 viewBox="0 0 471.4 301.2" style="enable-background:new 0 0 471.4 301.2;" xml:space="preserve">
<style type="text/css">
	.st0{fill:none;stroke:#101010;stroke-width:20;stroke-miterlimit:10;}
	.st1{fill:#FBFBFB;stroke:#101010;stroke-miterlimit:10;}
	.st2{font-family:'LilitaOneRus';}
	.st3{font-size:71.692px;}
	.st4{letter-spacing:-1.5;}
	.st5{fill:#101010;}
	.st6{font-size:80px;}
	.st7{font-size:79.8879px;}
	.st8{font-size:80.2461px;}
	.st9{font-size:79.8799px;}
	.st10{font-size:72.0589px;}
	.st11{font-size:71.89px;}
	.st12{font-size:72px;}
	.st13{font-size:72.23px;}
	.st14{fill:none;stroke:#101010;stroke-width:20;stroke-linecap:round;stroke-linejoin:round;}
</style>
<title>Ресурс 1</title>
<path class="st0" d="M81.2,177.3C67.2,143,83.7,103.9,118,90s73.4,2.6,87.3,36.8c0.2,0.5,0.4,1,0.6,1.4c0.1,0.2,0.2,0.5,0.3,0.7"/>
<text transform="matrix(1.2735 -0.5014 0.361 0.9326 216.3689 186.03)" class="st1 st2 st3 st4">Н</text>
<text transform="matrix(1.2735 -0.5014 0.361 0.9326 216.3689 186.03)" class="st5 st2 st3 st4">Н</text>
<path class="st0" d="M261,176.4c13.3,34.5,52.1,51.7,86.6,38.3s51.7-52.1,38.4-86.6"/>
<text transform="matrix(0.3993 -0.884 0.9113 0.4117 62.7796 134.0499)" class="st1 st2 st6">Б</text>
<text transform="matrix(0.3993 -0.884 0.9113 0.4117 62.7796 134.0499)" class="st5 st2 st6">Б</text>
<text transform="matrix(0.8212 -0.5307 0.5408 0.8412 78.4599 94.9696)" class="st1 st2 st7">О</text>
<text transform="matrix(0.8212 -0.5307 0.5408 0.8412 78.4599 94.9696)" class="st5 st2 st7">О</text>
<text transform="matrix(0.9698 -1.999600e-02 1.999600e-02 0.9998 119.6804 69.4608)" class="st1 st2 st8">Т</text>
<text transform="matrix(0.9698 -1.999600e-02 1.999600e-02 0.9998 119.6804 69.4608)" class="st5 st2 st8">Т</text>
<text transform="matrix(0.8413 0.4807 -0.4907 0.8713 157.2206 66.9194)" class="st1 st2 st9">А</text>
<text transform="matrix(0.8413 0.4807 -0.4907 0.8713 157.2206 66.9194)" class="st5 st2 st9">А</text>
<text transform="matrix(0.8412 0.5408 -0.5408 0.8412 230.9302 251.4899)" class="st1 st2 st10">Ч</text>
<text transform="matrix(0.8412 0.5408 -0.5408 0.8412 230.9302 251.4899)" class="st5 st2 st10">Ч</text>
<text transform="matrix(1 8.901061e-03 -8.901061e-03 1 299.98 284.44)" class="st1 st2 st11">И</text>
<text transform="matrix(1 8.901061e-03 -8.901061e-03 1 299.98 284.44)" class="st5 st2 st11">И</text>
<text transform="matrix(0.8347 -0.5508 0.5508 0.8347 379.8901 273.8098)" class="st1 st2 st12">К</text>
<text transform="matrix(0.8347 -0.5508 0.5508 0.8347 379.8901 273.8098)" class="st5 st2 st12">К</text>
<text transform="matrix(0.3987 -0.9171 0.9171 0.3987 438.5202 222.6994)" class="st1 st2 st13">И</text>
<text transform="matrix(0.3987 -0.9171 0.9171 0.3987 438.5202 222.6994)" class="st5 st2 st13">И</text>
<path class="st0" d="M386.1,128.7c-12.9-34.4-51-52-85.5-39.5"/>
<path class="st0" d="M81.2,177.2c13.7,34,52.3,50.7,86.5,37.4"/>
<polyline class="st14" points="384.2,110.4 429.9,58.2 445.8,95 "/>
</svg>
