<?xml version="1.0" encoding="utf-8"?>
<!-- Generator: Adobe Illustrator 23.0.3, SVG Export Plug-In . SVG Version: 6.00 Build 0)  -->
<svg version="1.1" id="Layer_1" xmlns="http://www.w3.org/2000/svg" xmlns:xlink="http://www.w3.org/1999/xlink" x="0px" y="0px"
	 viewBox="0 0 64 64" style="enable-background:new 0 0 64 64;" xml:space="preserve">
<style type="text/css">
	.st0{fill:#101010;}
</style>
<path class="st0" d="M61.1,16.2C55.6,1.7,34.9-1.2,28.7,0.4c-4,1-17.3,2-23.9,14.2S-2.7,44.5,9,55s28.6,12.4,42.2,2.2
	S66.6,30.7,61.1,16.2z M60.8,36.5c-0.1,0.2-1.1,2.5-1.1,2.5s-4.9-6.2-5.1-6.2s-0.6,1-0.4,1.2c0.2,0.2,5.1,6.2,5.1,6.2L58,42.4
	c0,0-4.3-5.8-4.6-5.8c-0.3-0.1-1,0.5-0.7,0.7c0.2,0.2,4.8,5.8,4.5,6.2s-2,2.1-2,2.1s-3.6-5.4-3.9-5.5c-0.2-0.1-1.1,0.7-0.9,1.2
	c0.2,0.5,3.8,5.4,3.6,5.7s-2,2.1-2,2.1s-2.9-5-3.2-5.1s-1.2,0.9-1,1.1c0.2,0.2,3.6,4.7,3.4,5.1c-0.2,0.3-2,1.6-2,1.6l-2.9-4.5
	l-1.1,1c0,0,2.6,4.2,2.5,4.6c-0.1,0.4-2.3,1.6-2.3,1.6L42.8,50c0,0-1.1,0.6-1.1,0.8s2.6,4.7,2.6,4.7l-2,0.9c0,0-2.4-4.7-2.6-4.8
	c-0.2-0.1-1.1-0.2-1,0.5s2.1,5,2.1,5l-2,0.6c0,0-2.1-4.3-2.4-4.5c-0.2-0.2-1.3,0.2-1.1,0.5c0.2,0.2,2.4,4.7,2.1,4.8
	s-2.8,0.3-2.8,0.3s-1.8-4.2-2.1-4.3c-0.2-0.1-1,0.2-1,0.6C31.6,55.5,33,59,33,59h-2.1c0,0-1.4-2.9-1.7-3.2c-0.3-0.3-1.3,0.2-1.1,0.5
	c0.2,0.2,1.4,2.9,1.2,3c-0.2,0.1-10.1,0.8-18.9-6.6s-9.9-19.1-8.7-26C2.9,19.9,8.4,8,19,4.3C22.8,3,29.6-0.3,40.5,2.4
	s16.5,10.4,17.4,12s1.7,4.3,1.7,4.3S56,14,55.4,14c-0.6-0.1-0.9,0.8-0.6,1.2c0.2,0.4,4.8,4.9,5.1,5.4c0.3,0.6,1,3.9,1,3.9
	s-4.1-5.4-4.6-5.5s-0.8,0.8-0.6,1s5.4,5.9,5.5,6.2c0.1,0.3,0.5,3.6,0.5,3.6s-5-5.9-5.3-6s-0.6,1.1-0.6,1.1s5.5,6,5.5,6.3
	c0.1,0.3,0.2,3.4,0.2,3.4s-5.2-6.3-5.6-6.3s-0.5,1.3-0.5,1.3S60.9,36.3,60.8,36.5L60.8,36.5z M14.4,13.7c2.8-3.7,6.5-5.1,6.5-5.1
	s-0.5-1-0.8-1.1s-3.2,0.9-6.7,4.7S9,18.6,9.2,19.1c0.2,0.4,1.1,0.9,1.6,0.6C11.3,19.5,11.7,17.4,14.4,13.7L14.4,13.7z M43.3,16
	c-1.8,0.2-26.6,11.5-29.9,13.4c-3.2,2-2.6,4.1-1.8,5.2s8.6,3,8.6,3c0.6,0.4,5,9.6,5.7,9.7c0.7,0.1,5.5-6.6,6-6.7
	c0.5-0.2,2.9,0.9,4.6,1.4c1.7,0.6,5.5,2.2,6.8,1.1c1.3-1.1,3.6-17.6,4.2-22.2C48,16.4,45.1,15.8,43.3,16L43.3,16z M44.8,19.4
	c-0.1,0.2-1.4,1.7-1.4,1.7l-0.2-1.4l1.4-1.4C44.6,18.3,44.8,19.2,44.8,19.4L44.8,19.4z M12.7,32.1c0.4-1.4,3.7-2.5,7.4-4.5
	S43,17.4,43.5,17.3s0.2,0.6,0.2,0.6S21.2,36.1,20.8,36.1C20.4,36.1,12,34.8,12.7,32.1L12.7,32.1z M42.5,22.1
	c-0.1,0.2-1.8,2.1-1.8,2.1s-0.5-2-0.4-2.3c0,0,1.7-1.6,1.8-1.4C42.1,20.7,42.6,21.9,42.5,22.1L42.5,22.1z M40,25.6l-1.4,1.8l-1-3.2
	c0,0,1.6-1.5,1.7-1.3C39.3,23,40,25.6,40,25.6L40,25.6z M32.6,28.3c0.2-0.1,1.3-1.3,1.4-1.2c0.1,0.2,1.6,4.3,1.5,4.5
	S34.4,33,34.4,33L32.6,28.3z M33.8,34.1l-1,1.1L30.7,30c0.2-0.2,1-0.9,1-0.9L33.8,34.1L33.8,34.1z M34.9,26.1
	c0.2-0.2,1.3-1.2,1.3-1.2l1.3,3.6l-1.2,1.6L34.9,26.1L34.9,26.1z M25.8,45.6c0,0-4-8.3-3.9-8.5l1.8-1.3c0,0,3.4,8.1,3.3,8.4
	C26.9,44.7,25.8,45.6,25.8,45.6L25.8,45.6z M28,43.3c0,0-3.3-8-3.2-8.3c0-0.2,1.1-1.1,1.2-1.1c0.2,0,3.2,7.8,3.2,8.1
	S28,43.3,28,43.3L28,43.3z M29.7,40.9c-0.1-0.2-3-7.4-2.8-7.7s1-0.8,1-0.8l2.5,7.4C30.4,39.8,29.8,41.1,29.7,40.9z M30.8,37.6
	c0,0-2.1-5.7-2-6.1c0.1-0.2,0.8-0.8,1.1-0.8c0.2,0,2.2,5.1,2.2,5.3C32,36.2,30.8,37.6,30.8,37.6L30.8,37.6z M41.6,41.7
	c-1.1,0.6-9.5-2.7-9.5-3s13.2-18.4,13.7-18.9C46.1,19.6,42.7,41.2,41.6,41.7L41.6,41.7z"/>
</svg>
