<?xml version="1.0" encoding="utf-8"?>
<!-- Generator: Adobe Illustrator 23.0.3, SVG Export Plug-In . SVG Version: 6.00 Build 0)  -->
<svg version="1.1" id="Слой_1" xmlns="http://www.w3.org/2000/svg" xmlns:xlink="http://www.w3.org/1999/xlink" x="0px" y="0px"
	 viewBox="0 0 64 64" style="enable-background:new 0 0 64 64;" xml:space="preserve">
<style type="text/css">
	.st0{fill:#101010;}
</style>
<path class="st0" d="M52.1,33.6c-0.1-0.3,0.3-0.4,1.5-1.6c1.2-1.2,4.9-5.9,7.9-9.7c3-3.7,2.6-6,2.4-8.3s-1.4-3.3-2.7-3.8
	S53.7,10,52.7,10c-1.1,0.1-1.6,0.6-2.2,1.5c-0.6,0.9-4.3,6.5-5.7,8.2c-1.5,1.7-4.4,4.5-4.7,4.4s-0.2-7.4-0.4-9
	c-0.2-1.7-3.4-3.2-5.5-3.4s-10.7,0.2-11.8,0.4s-1.7,1.2-1.6,1.6c0.1,0.4,1.9,2.1,2.4,2.8s1,6.9,1,9.5s-1.1,3.7-1.4,3.6
	c-0.4-0.1-2-0.7-4-3s-7.2-12.9-7.4-13.2c-0.2-0.4-1.2-0.5-4.1-0.6s-6,0.4-6.4,1.2c-1.5,2.5-0.7,7.7,0,10s2.2,6.2,5,10.6
	s7.2,9,11.3,13.1s7.3,5.3,9.1,5.9s5.1,0.4,7.9,0.3c2.8-0.1,3.9-1.2,4.5-2.6c0.6-1.4,0.5-5,0.4-5.3s-0.1-2,0.5-2s1.1,0.7,2.1,1.9
	c1,1.1,2.6,5.8,3.4,6.2c0.7,0.5,2.2,0.9,4.6,0.9s7.5-0.2,8.5-0.5s3.2-2.9,3.6-4.6c0.4-1.7-0.8-3.3-2-5.4S52.2,33.9,52.1,33.6
	L52.1,33.6z M60.3,48.1c-0.1-0.2-4.7-5.8-6.3-7.8s-2.3-2.8-2.7-2.6c-0.5,0.3-0.3,0.8,0,1.1s8.1,9.6,8,9.8c-0.1,0.2-1.5,0.4-1.6,0.2
	s-3.1-4.5-5.1-6.8s-3.3-3.3-3.6-3.2c-0.4,0.1-0.5,0.8-0.1,1.1s3,2.3,4.6,4.6s3.4,4.1,3.1,4.3s-1.7,0.2-1.8,0.1
	c-0.1-0.1-3.5-4.4-5.1-6.2s-1.9-1.9-2.4-1.7s0.5,1.1,1.3,1.9c0.7,0.8,4.6,5.3,4.8,5.6s0.4,0.7,0.1,0.7s-1.8,0-2-0.1
	s-5.4-7.5-5.9-7.6s-0.8,0.2-0.7,0.4c0.1,0.3,5.5,6.9,5.1,7s-1.2,0.1-1.6-0.2c-0.4-0.3-3.5-5-5.6-6.7s-3.3-2.1-4.3-2.1
	s-1.6,0.9-1.6,0.9s-2.9-3.4-3.4-3.3S33,38,33.3,38.4s3,3,3,3.1s-0.2,1.7-0.3,1.9c0,0.1-3.9-4.1-4.1-4s-0.5,0.9-0.4,1.2
	c0.2,0.3,4.8,4.1,4.9,4.4c0.1,0.4,0.3,2.8,0,2.6s-5.1-6-5.4-5.9s-0.8,0.8-0.6,1.1c0.2,0.3,5.8,5.7,5.8,6s-0.5,0.7-0.9,0.5
	c-0.4-0.1-5.4-6-5.9-5.8s-0.9,0.5-0.5,0.9s5.3,5,5.1,5.2c-0.2,0.3-1.5,0.2-1.8,0c-0.3-0.1-4.3-5.3-4.9-5.1s-0.8,0.7-0.5,1.1
	s4.4,4,4.2,4.2s-1.5,0.1-1.8,0c-0.3-0.2-3.7-4.1-4.2-4.1c-0.4-0.1-0.8,0.5-0.6,0.8c0.2,0.2,2.8,2.8,2.7,3c-0.1,0.2-3.7-0.9-5.5-2.3
	c-1.8-1.5-6.1-5.4-9-9.2c-2.8-3.8-4.5-5.8-7-10.8S1,16.3,2.2,14.9c0.4-0.5,1.3-0.7,2.5-0.7s5.5-0.1,5.8,0.3
	c0.3,0.4,3.8,8.3,5.8,11.3s3.9,4.8,5.2,5.3c1.3,0.5,2.9,0,3.6-1.5c0.6-1.6,0.6-4.1,0.4-6.1s0-5.5-0.9-6.8s-1.7-2.4-1.6-2.6
	c0.1-0.2,4.6-0.5,7.6-0.6s5.4-0.4,5.4,1.2s0.2,4,0,7.4s0,4.3,1.2,4.8c1.1,0.5,2.7-0.1,5.3-2.4s5.2-5.9,6.8-8.4s3-4.3,3.3-4.4
	s5.6-0.5,6.1-0.1s2.1,2.5,2.4,2.7c0.3,0.2,0.3,0.5,0.3,0.6S61,16,60.7,15.8s-2.2-2.2-2.6-2.1c-0.4,0.1-0.5,0.4-0.2,0.8
	c0.3,0.4,2.4,2,2.4,2.3s-0.7,1.4-0.9,1.2c-0.2-0.1-2.5-3-2.8-2.9s-0.7,0.7-0.4,1c0.3,0.3,2.5,2.5,2.5,2.8c0,0.2-0.7,1.4-0.9,1.3
	s-2.5-2.7-2.9-2.5c-0.3,0.2-0.6,0.4-0.4,0.8s2.8,2.4,2.7,2.7c-0.1,0.4-0.8,1.7-1.1,1.6c-0.2-0.1-2.9-3.4-3.2-3.2s-0.6,0.5-0.4,0.8
	c0.2,0.3,2.9,3.2,2.9,3.4s-0.6,1.1-0.7,1.1s-2.6-2.9-2.8-2.8s-0.7,0.5-0.6,0.8c0.1,0.2,2.7,2.7,2.4,3.2S53,27,52.8,26.9
	s-2.8-3.2-3.1-3.1s-0.8,0.3-0.6,0.7c0.2,0.4,3,3,2.9,3.3s-0.9,0.9-1.2,0.7c-0.2-0.2-2.5-2.8-2.9-2.7S47,25.7,47.1,26
	s2.6,2.7,2.4,2.9s-1.5,0.9-2.1,1.4c-0.5,0.5-0.5,0.9-0.1,1.2c0.4,0.3,5.6,4.5,8.5,8.2s3.7,5.3,4.1,6.4
	C60.3,47.2,60.4,48.3,60.3,48.1L60.3,48.1z M7.5,16c-0.4-0.3-3.6-0.3-3.8,0.2c-0.2,0.4,1.1,4.5,1.5,4.7c0.5,0.3,0.8-0.1,1-0.4
	s-0.8-3-0.8-3.3S7.1,17,7.5,17S7.8,16.3,7.5,16L7.5,16z M29,14.8c-0.1,0.2,0,0.9,0.4,1s3.1,0.3,3.4,0.3s0.2,1.5,0.3,2s0.9,0.3,1.1,0
	s0.1-3,0-3.4C34,14.5,29.1,14.6,29,14.8L29,14.8z"/>
</svg>
